<svg width="884.1875px" height="122px" xmlns="http://www.w3.org/2000/svg" viewBox="-192.09375 14 884.1875 122" style="background:#444" preserveAspectRatio="xMidYMid"><defs><filter id="editing-crystal" x="-100%" y="-100%" width="300%" height="300%"><feMorphology operator="dilate" radius="2" in="SourceGraphic" result="border"></feMorphology><feFlood flood-color="#fff" result="black"></feFlood><feMorphology operator="dilate" radius="2" in="SourceGraphic" result="erode"></feMorphology><feGaussianBlur in="erode" stdDeviation="4" result="blur"></feGaussianBlur><feOffset in="blur" dx="2" dy="2" result="offset"></feOffset><feComposite operator="atop" in="offset" in2="black" result="merge"></feComposite><feComposite operator="in" in="merge" in2="SourceGraphic" result="inner-shadow"></feComposite><feGaussianBlur in="SourceGraphic" stdDeviation="2.5" result="shadow1"></feGaussianBlur><feOffset in="shadow1" dx="0" dy="5" result="shadow"></feOffset><feSpecularLighting in="SourceGraphic" result="specular" surfaceScale="1.5" specularConstant="100" specularExponent="10" lighting-color="#fff"><fePointLight x="250" y="-300" z="-400"></fePointLight></feSpecularLighting><feGaussianBlur in="specular" stdDeviation="1" result="specular2"></feGaussianBlur><feComposite operator="in" in="specular2" in2="SourceAlpha" result="specular3"></feComposite><feMerge result="merge"><feMergeNode in="border"></feMergeNode><feMergeNode in="inner-shadow"></feMergeNode><feMergeNode in="specular3"></feMergeNode></feMerge><feComponentTransfer in="merge" result="final"><feFuncA type="linear" slope="0.9" intercept="0"></feFuncA></feComponentTransfer><feMerge><feMergeNode in="shadow"></feMergeNode><feMergeNode in="final"></feMergeNode></feMerge></filter></defs><g filter="url(#editing-crystal)"><g transform="translate(-65.10589790344238, 97.46500015258789)"><path d="M29.18 1.28L29.18 1.28L29.18 1.28Q20.99 1.28 20.22-10.37L20.22-10.37L9.22-10.37L9.22-10.37Q7.94-7.42 7.04-4.86L7.04-4.86L5.38 0L-3.58 0L16.58-42.24L30.34-42.24L33.02-11.14L33.02-11.14Q33.66-4.42 36.22-2.43L36.22-2.43L36.22-2.43Q34.37 1.28 29.18 1.28ZM14.72-23.17L11.20-15.04L20.03-15.04L19.26-31.49L19.26-33.22L14.72-23.17ZM40.58-9.47L40.58-9.47L40.58-9.47Q40.58-11.97 41.22-15.17L41.22-15.17L46.40-42.24L60.54-42.24L55.42-14.98L55.42-14.98Q54.85-11.97 54.85-9.76L54.85-9.76L54.85-9.76Q54.85-7.55 55.78-6.40L55.78-6.40L55.78-6.40Q56.70-5.25 58.43-5.25L58.43-5.25L58.43-5.25Q60.16-5.25 61.25-5.70L61.25-5.70L61.25-5.70Q62.34-6.14 63.23-7.23L63.23-7.23L63.23-7.23Q64.96-9.41 66.05-14.98L66.05-14.98L71.23-42.24L80.90-42.24L75.78-15.04L75.78-15.04Q73.98-5.95 69.06-2.30L69.06-2.30L69.06-2.30Q64.26 1.28 54.78 1.28L54.78 1.28L54.78 1.28Q47.68 1.28 43.90-1.79L43.90-1.79L43.90-1.79Q40.58-4.48 40.58-9.47ZM87.30-31.17L87.30-31.17L87.30-31.17Q85.12-32.83 85.12-36.38L85.12-36.38L85.12-36.38Q85.12-39.94 87.46-41.79L87.46-41.79L87.46-41.79Q89.79-43.65 93.82-43.65L93.82-43.65L93.82-43.65Q96.38-43.65 102.46-42.75L102.46-42.75L106.82-42.11L106.82-42.11Q108.99-41.86 111.26-41.86L111.26-41.86L111.26-41.86Q113.54-41.86 115.07-42.82L115.07-42.82L115.07-42.82Q117.38-40.77 117.38-37.82L117.38-37.82L117.38-37.82Q117.38-34.88 114.75-32.77L114.75-32.77L114.75-32.77Q112.06-30.53 108.61-30.53L108.61-30.53L108.61-30.53Q106.94-30.53 104.26-30.98L104.26-30.98L104.26-30.98Q101.12-21.12 101.12-14.27L101.12-14.27L101.12-14.27Q101.12-7.42 104.58-3.84L104.58-3.84L104.58-3.84Q102.98-0.96 100.61 0.16L100.61 0.16L100.61 0.16Q98.24 1.28 94.69 1.28L94.69 1.28L94.69 1.28Q91.14 1.28 88.93-0.67L88.93-0.67L88.93-0.67Q86.72-2.62 86.72-6.66L86.72-6.66L86.72-6.66Q86.72-11.33 89.28-19.01L89.28-19.01L89.28-19.01Q91.84-26.62 95.68-32.45L95.68-32.45L95.68-32.45Q93.82-32.64 91.90-32.64L91.90-32.64L91.90-32.64Q87.94-32.64 87.30-31.17ZM116.29-15.62L116.29-15.62L116.29-15.62Q116.29-27.71 122.56-35.33L122.56-35.33L122.56-35.33Q129.22-43.58 140.80-43.58L140.80-43.58L140.80-43.58Q149.18-43.58 153.41-39.52L153.41-39.52L153.41-39.52Q157.63-35.46 157.63-26.88L157.63-26.88L157.63-26.88Q157.63-13.82 150.98-6.21L150.98-6.21L150.98-6.21Q144.38 1.28 133.31 1.28L133.31 1.28L133.31 1.28Q124.67 1.28 120.48-3.04L120.48-3.04L120.48-3.04Q116.29-7.36 116.29-15.62ZM133.12-28.86L133.12-28.86L133.12-28.86Q130.24-17.34 130.24-8.26L130.24-8.26L130.24-8.26Q130.24-6.08 130.98-4.67L130.98-4.67L130.98-4.67Q131.71-3.26 133.66-3.26L133.66-3.26L133.66-3.26Q135.62-3.26 136.83-4.19L136.83-4.19L136.83-4.19Q138.05-5.12 139.01-7.23L139.01-7.23L139.01-7.23Q140.54-10.69 141.98-18.02L141.98-18.02L141.98-18.02Q143.42-25.34 143.55-28.38L143.55-28.38L143.55-28.38Q143.68-31.42 143.68-33.73L143.68-33.73L143.68-33.73Q143.68-36.03 142.98-37.50L142.98-37.50L142.98-37.50Q142.27-38.98 140.38-38.98L140.38-38.98L140.38-38.98Q138.50-38.98 137.22-37.82L137.22-37.82L137.22-37.82Q134.85-35.65 133.12-28.86ZM163.14-10.37L163.14-10.37L163.14-10.37Q161.09-11.84 161.09-14.66L161.09-14.66L161.09-14.66Q161.09-16.19 161.86-17.44L161.86-17.44L161.86-17.44Q162.62-18.69 164.16-18.88L164.16-18.88L176.77-18.88L176.77-18.88Q178.88-18.88 179.52-20.16L179.52-20.16L179.52-20.16Q180.54-19.58 180.99-18.37L180.99-18.37L180.99-18.37Q181.44-17.15 181.44-15.87L181.44-15.87L181.44-15.87Q181.44-14.59 180.45-13.34L180.45-13.34L180.45-13.34Q179.46-12.10 177.98-11.97L177.98-11.97L166.27-11.97L166.27-11.97Q164.93-11.97 164.29-11.55L164.29-11.55L164.29-11.55Q163.65-11.14 163.14-10.37ZM210.82-29.57L210.82-29.57L210.82-29.57Q211.78-31.49 211.78-33.28L211.78-33.28L211.78-33.28Q211.78-35.07 211.58-36.06L211.58-36.06L211.58-36.06Q211.39-37.06 210.94-37.82L210.94-37.82L210.94-37.82Q209.98-39.49 208.06-39.49L208.06-39.49L208.06-39.49Q205.70-39.49 203.78-37.76L203.78-37.76L203.78-37.76Q201.73-35.97 201.73-33.15L201.73-33.15L201.73-33.15Q201.73-31.36 202.98-29.98L202.98-29.98L202.98-29.98Q204.22-28.61 206.14-27.33L206.14-27.33L206.14-27.33Q208.06-26.05 210.24-24.77L210.24-24.77L210.24-24.77Q212.42-23.49 214.34-21.95L214.34-21.95L214.34-21.95Q218.75-18.43 218.75-13.70L218.75-13.70L218.75-13.70Q218.75-10.50 217.06-7.78L217.06-7.78L217.06-7.78Q215.36-5.06 212.54-3.07L212.54-3.07L212.54-3.07Q206.40 1.28 198.27 1.28L198.27 1.28L198.27 1.28Q191.68 1.28 188.29-0.86L188.29-0.86L188.29-0.86Q184.90-3.01 184.90-6.27L184.90-6.27L184.90-6.27Q184.90-12.10 189.44-13.57L189.44-13.57L189.44-13.57Q190.72-14.02 192.67-14.02L192.67-14.02L192.67-14.02Q194.62-14.02 196.86-13.18L196.86-13.18L196.86-13.18Q195.84-10.56 195.84-8.19L195.84-8.19L195.84-8.19Q195.84-3.07 199.49-3.07L199.49-3.07L199.49-3.07Q201.86-3.07 203.81-4.80L203.81-4.80L203.81-4.80Q205.76-6.53 205.76-8.48L205.76-8.48L205.76-8.48Q205.76-10.43 204.51-11.84L204.51-11.84L204.51-11.84Q203.26-13.25 201.41-14.37L201.41-14.37L201.41-14.37Q199.55-15.49 197.41-16.58L197.41-16.58L197.41-16.58Q195.26-17.66 193.41-19.20L193.41-19.20L193.41-19.20Q189.06-22.72 189.06-28.35L189.06-28.35L189.06-28.35Q189.06-32 190.85-34.85L190.85-34.85L190.85-34.85Q192.64-37.70 195.52-39.62L195.52-39.62L195.52-39.62Q201.28-43.52 208.35-43.52L208.35-43.52L208.35-43.52Q215.42-43.52 218.85-41.41L218.85-41.41L218.85-41.41Q222.27-39.30 222.27-35.71L222.27-35.71L222.27-35.71Q222.27-32.58 219.84-30.59L219.84-30.59L219.84-30.59Q217.73-28.93 215.17-28.93L215.17-28.93L215.17-28.93Q212.61-28.93 210.82-29.57ZM251.39 1.28L251.39 1.28L251.39 1.28Q243.20 1.28 242.43-10.37L242.43-10.37L231.42-10.37L231.42-10.37Q230.14-7.42 229.25-4.86L229.25-4.86L227.58 0L218.62 0L238.78-42.24L252.54-42.24L255.23-11.14L255.23-11.14Q255.87-4.42 258.43-2.43L258.43-2.43L258.43-2.43Q256.58 1.28 251.39 1.28ZM236.93-23.17L233.41-15.04L242.24-15.04L241.47-31.49L241.47-33.22L236.93-23.17ZM288.90-9.86L288.90-9.86L288.90-9.86Q290.11-8.32 290.11-5.34L290.11-5.34L290.11-5.34Q290.11-2.37 287.84-0.54L287.84-0.54L287.84-0.54Q285.57 1.28 281.60 1.28L281.60 1.28L281.60 1.28Q279.30 1.28 275.71 0.77L275.71 0.77L275.71 0.77Q268.67-0.32 266.66-0.32L266.66-0.32L266.66-0.32Q264.64-0.32 263.81-0.22L263.81-0.22L263.81-0.22Q262.98-0.13 261.63 0L261.63 0L269.38-42.24L283.39-42.24L276.99-7.04L276.99-7.04Q277.82-6.91 278.59-6.91L278.59-6.91L280.19-6.91L280.19-6.91Q285.57-6.91 288.90-9.86ZM321.73-9.86L321.73-9.86L321.73-9.86Q322.94-8.32 322.94-5.82L322.94-5.82L322.94-5.82Q322.94-2.37 320.38-0.54L320.38-0.54L320.38-0.54Q317.82 1.28 313.79 1.28L313.79 1.28L313.79 1.28Q311.49 1.28 307.97 0.77L307.97 0.77L307.97 0.77Q301.06-0.32 298.94-0.32L298.94-0.32L298.94-0.32Q296.83-0.32 296-0.22L296-0.22L296-0.22Q295.17-0.13 293.82 0L293.82 0L301.70-42.24L329.28-42.24L329.28-42.24Q329.28-38.34 327.39-36.29L327.39-36.29L327.39-36.29Q325.50-34.24 321.79-34.24L321.79-34.24L321.79-34.24Q318.08-34.24 314.30-35.97L314.30-35.97L312.32-24.77L323.71-24.77L323.71-24.77Q323.71-21.38 322.05-19.49L322.05-19.49L322.05-19.49Q320.38-17.60 317.60-17.60L317.60-17.60L317.60-17.60Q314.82-17.60 313.09-18.24L313.09-18.24L313.09-18.24Q311.36-18.88 311.17-19.07L311.17-19.07L308.86-6.98L308.86-6.98Q310.40-6.78 313.28-6.78L313.28-6.78L313.28-6.78Q318.21-6.78 321.73-9.86ZM353.79-29.57L353.79-29.57L353.79-29.57Q354.75-31.49 354.75-33.28L354.75-33.28L354.75-33.28Q354.75-35.07 354.56-36.06L354.56-36.06L354.56-36.06Q354.37-37.06 353.92-37.82L353.92-37.82L353.92-37.82Q352.96-39.49 351.04-39.49L351.04-39.49L351.04-39.49Q348.67-39.49 346.75-37.76L346.75-37.76L346.75-37.76Q344.70-35.97 344.70-33.15L344.70-33.15L344.70-33.15Q344.70-31.36 345.95-29.98L345.95-29.98L345.95-29.98Q347.20-28.61 349.12-27.33L349.12-27.33L349.12-27.33Q351.04-26.05 353.22-24.77L353.22-24.77L353.22-24.77Q355.39-23.49 357.31-21.95L357.31-21.95L357.31-21.95Q361.73-18.43 361.73-13.70L361.73-13.70L361.73-13.70Q361.73-10.50 360.03-7.78L360.03-7.78L360.03-7.78Q358.34-5.06 355.52-3.07L355.52-3.07L355.52-3.07Q349.38 1.28 341.25 1.28L341.25 1.28L341.25 1.28Q334.66 1.28 331.26-0.86L331.26-0.86L331.26-0.86Q327.87-3.01 327.87-6.27L327.87-6.27L327.87-6.27Q327.87-12.10 332.42-13.57L332.42-13.57L332.42-13.57Q333.70-14.02 335.65-14.02L335.65-14.02L335.65-14.02Q337.60-14.02 339.84-13.18L339.84-13.18L339.84-13.18Q338.82-10.56 338.82-8.19L338.82-8.19L338.82-8.19Q338.82-3.07 342.46-3.07L342.46-3.07L342.46-3.07Q344.83-3.07 346.78-4.80L346.78-4.80L346.78-4.80Q348.74-6.53 348.74-8.48L348.74-8.48L348.74-8.48Q348.74-10.43 347.49-11.84L347.49-11.84L347.49-11.84Q346.24-13.25 344.38-14.37L344.38-14.37L344.38-14.37Q342.53-15.49 340.38-16.58L340.38-16.58L340.38-16.58Q338.24-17.66 336.38-19.20L336.38-19.20L336.38-19.20Q332.03-22.72 332.03-28.35L332.03-28.35L332.03-28.35Q332.03-32 333.82-34.85L333.82-34.85L333.82-34.85Q335.62-37.70 338.50-39.62L338.50-39.62L338.50-39.62Q344.26-43.52 351.33-43.52L351.33-43.52L351.33-43.52Q358.40-43.52 361.82-41.41L361.82-41.41L361.82-41.41Q365.25-39.30 365.25-35.71L365.25-35.71L365.25-35.71Q365.25-32.58 362.82-30.59L362.82-30.59L362.82-30.59Q360.70-28.93 358.14-28.93L358.14-28.93L358.14-28.93Q355.58-28.93 353.79-29.57ZM408.13-26.56L408.13-26.56L408.13-26.56Q408.13 0.70 378.56 0.70L378.56 0.70L378.56 0.70Q373.82 0.70 366.02-0.45L366.02-0.45L373.18-38.27L373.18-38.27Q373.70-40.83 374.02-42.30L374.02-42.30L374.02-42.30Q383.74-43.01 388.06-43.01L388.06-43.01L388.06-43.01Q392.38-43.01 396.35-42.11L396.35-42.11L396.35-42.11Q400.32-41.22 402.94-39.23L402.94-39.23L402.94-39.23Q408.13-35.33 408.13-26.56ZM394.94-28.93L394.94-28.93L394.94-28.93Q394.94-38.46 388.10-38.46L388.10-38.46L387.46-38.46L387.46-38.46Q387.14-38.46 386.82-38.40L386.82-38.40L380.22-4.03L380.22-4.03Q380.48-3.90 380.74-3.90L380.74-3.90L381.25-3.90L381.25-3.90Q383.62-3.90 386.08-5.38L386.08-5.38L386.08-5.38Q388.54-6.85 390.46-9.86L390.46-9.86L390.46-9.86Q394.94-16.83 394.94-28.93ZM412.35-15.62L412.35-15.62L412.35-15.62Q412.35-27.71 418.62-35.33L418.62-35.33L418.62-35.33Q425.28-43.58 436.86-43.58L436.86-43.58L436.86-43.58Q445.25-43.58 449.47-39.52L449.47-39.52L449.47-39.52Q453.70-35.46 453.70-26.88L453.70-26.88L453.70-26.88Q453.70-13.82 447.04-6.21L447.04-6.21L447.04-6.21Q440.45 1.28 429.38 1.28L429.38 1.28L429.38 1.28Q420.74 1.28 416.54-3.04L416.54-3.04L416.54-3.04Q412.35-7.36 412.35-15.62ZM429.18-28.86L429.18-28.86L429.18-28.86Q426.30-17.34 426.30-8.26L426.30-8.26L426.30-8.26Q426.30-6.08 427.04-4.67L427.04-4.67L427.04-4.67Q427.78-3.26 429.73-3.26L429.73-3.26L429.73-3.26Q431.68-3.26 432.90-4.19L432.90-4.19L432.90-4.19Q434.11-5.12 435.07-7.23L435.07-7.23L435.07-7.23Q436.61-10.69 438.05-18.02L438.05-18.02L438.05-18.02Q439.49-25.34 439.62-28.38L439.62-28.38L439.62-28.38Q439.74-31.42 439.74-33.73L439.74-33.73L439.74-33.73Q439.74-36.03 439.04-37.50L439.04-37.50L439.04-37.50Q438.34-38.98 436.45-38.98L436.45-38.98L436.45-38.98Q434.56-38.98 433.28-37.82L433.28-37.82L433.28-37.82Q430.91-35.65 429.18-28.86ZM461.95-31.17L461.95-31.17L461.95-31.17Q459.78-32.83 459.78-36.38L459.78-36.38L459.78-36.38Q459.78-39.94 462.11-41.79L462.11-41.79L462.11-41.79Q464.45-43.65 468.48-43.65L468.48-43.65L468.48-43.65Q471.04-43.65 477.12-42.75L477.12-42.75L481.47-42.11L481.47-42.11Q483.65-41.86 485.92-41.86L485.92-41.86L485.92-41.86Q488.19-41.86 489.73-42.82L489.73-42.82L489.73-42.82Q492.03-40.77 492.03-37.82L492.03-37.82L492.03-37.82Q492.03-34.88 489.41-32.77L489.41-32.77L489.41-32.77Q486.72-30.53 483.26-30.53L483.26-30.53L483.26-30.53Q481.60-30.53 478.91-30.98L478.91-30.98L478.91-30.98Q475.78-21.12 475.78-14.27L475.78-14.27L475.78-14.27Q475.78-7.42 479.23-3.84L479.23-3.84L479.23-3.84Q477.63-0.96 475.26 0.16L475.26 0.16L475.26 0.16Q472.90 1.28 469.34 1.28L469.34 1.28L469.34 1.28Q465.79 1.28 463.58-0.67L463.58-0.67L463.58-0.67Q461.38-2.62 461.38-6.66L461.38-6.66L461.38-6.66Q461.38-11.33 463.94-19.01L463.94-19.01L463.94-19.01Q466.50-26.62 470.34-32.45L470.34-32.45L470.34-32.45Q468.48-32.64 466.56-32.64L466.56-32.64L466.56-32.64Q462.59-32.64 461.95-31.17ZM523.39-13.25L523.39-13.25L523.39-13.25Q525.06-12.03 525.06-9.44L525.06-9.44L525.06-9.44Q525.06-6.85 523.94-5.02L523.94-5.02L523.94-5.02Q522.82-3.20 520.64-1.79L520.64-1.79L520.64-1.79Q515.97 1.22 507.81 1.22L507.81 1.22L507.81 1.22Q499.65 1.22 495.20-3.04L495.20-3.04L495.20-3.04Q490.75-7.30 490.75-14.85L490.75-14.85L490.75-14.85Q490.75-25.54 496.32-33.66L496.32-33.66L496.32-33.66Q500.54-39.68 508.10-42.24L508.10-42.24L508.10-42.24Q512-43.52 515.84-43.52L515.84-43.52L515.84-43.52Q519.68-43.52 522.05-43.01L522.05-43.01L522.05-43.01Q524.42-42.50 526.21-41.47L526.21-41.47L526.21-41.47Q530.11-39.23 530.11-35.65L530.11-35.65L530.11-35.65Q530.11-32.38 527.04-29.95L527.04-29.95L527.04-29.95Q524.22-27.78 521.92-27.78L521.92-27.78L521.92-27.78Q519.62-27.78 518.66-28.10L518.66-28.10L518.66-28.10Q518.91-30.40 518.91-31.90L518.91-31.90L518.91-31.90Q518.91-33.41 518.85-34.50L518.85-34.50L518.85-34.50Q518.78-35.58 518.46-36.61L518.46-36.61L518.46-36.61Q517.82-38.98 515.87-38.98L515.87-38.98L515.87-38.98Q513.92-38.98 511.97-37.15L511.97-37.15L511.97-37.15Q510.02-35.33 508.35-32.26L508.35-32.26L508.35-32.26Q504.58-25.28 504.58-17.02L504.58-17.02L504.58-17.02Q504.58-13.06 506.82-10.78L506.82-10.78L506.82-10.78Q509.06-8.51 513.86-8.51L513.86-8.51L513.86-8.51Q517.44-8.51 520.83-10.88L520.83-10.88L520.83-10.88Q522.30-11.90 523.39-13.25ZM531.33-15.62L531.33-15.62L531.33-15.62Q531.33-27.71 537.60-35.33L537.60-35.33L537.60-35.33Q544.26-43.58 555.84-43.58L555.84-43.58L555.84-43.58Q564.22-43.58 568.45-39.52L568.45-39.52L568.45-39.52Q572.67-35.46 572.67-26.88L572.67-26.88L572.67-26.88Q572.67-13.82 566.02-6.21L566.02-6.21L566.02-6.21Q559.42 1.28 548.35 1.28L548.35 1.28L548.35 1.28Q539.71 1.28 535.52-3.04L535.52-3.04L535.52-3.04Q531.33-7.36 531.33-15.62ZM548.16-28.86L548.16-28.86L548.16-28.86Q545.28-17.34 545.28-8.26L545.28-8.26L545.28-8.26Q545.28-6.08 546.02-4.67L546.02-4.67L546.02-4.67Q546.75-3.26 548.70-3.26L548.70-3.26L548.70-3.26Q550.66-3.26 551.87-4.19L551.87-4.19L551.87-4.19Q553.09-5.12 554.05-7.23L554.05-7.23L554.05-7.23Q555.58-10.69 557.02-18.02L557.02-18.02L557.02-18.02Q558.46-25.34 558.59-28.38L558.59-28.38L558.59-28.38Q558.72-31.42 558.72-33.73L558.72-33.73L558.72-33.73Q558.72-36.03 558.02-37.50L558.02-37.50L558.02-37.50Q557.31-38.98 555.42-38.98L555.42-38.98L555.42-38.98Q553.54-38.98 552.26-37.82L552.26-37.82L552.26-37.82Q549.89-35.65 548.16-28.86ZM581.25 0L573.89 0L585.47-42.24L598.85-42.24L601.79-18.11L613.70-42.24L624.90-42.24L626.05-10.62L626.05-10.62Q626.30-4.35 629.38-2.43L629.38-2.43L629.38-2.43Q628.67-1.15 626.62 0.06L626.62 0.06L626.62 0.06Q624.58 1.28 621.86 1.28L621.86 1.28L621.86 1.28Q619.14 1.28 617.54 0.51L617.54 0.51L617.54 0.51Q615.94-0.26 615.04-1.54L615.04-1.54L615.04-1.54Q613.44-3.84 613.44-8.26L613.44-8.26L613.44-28.03L600.83 0L592.90 0L588.42-28.74L581.25 0Z" fill="#000000" stroke="#88e0eb" stroke-width="1.5"></path></g></g><style>text {
  font-size: 64px;
  font-family: Arial Black;
  dominant-baseline: central;
  text-anchor: middle;
}</style></svg>